<svg width="380" height="320" viewBox="0 0 380 320" fill="none" xmlns="http://www.w3.org/2000/svg" aria-hidden="true">
  <g stroke="#ffffff" stroke-opacity="0.18" fill="none" stroke-width="1.5">
    <g transform="translate(280 215) scale(2.4)">
      <path d="M2.07 12.45c0-1.15.93-2.08 2.07-2.08h6.23c1.14 0 2.07.93 2.07 2.08v8.3h2.07v-8.3a4.15 4.15 0 0 0-4.14-4.15H4.14A4.15 4.15 0 0 0 0 12.45v8.3h2.07v-8.3Z"/>
      <path d="M2.86 4.95a1.04 1.04 0 0 1 1.48 1.45 4.34 4.34 0 0 1 6.84.05 1.04 1.04 0 1 0 1.48-1.47 6.42 6.42 0 0 0-9.8-.03Z"/>
      <path d="M1.4 4.51c.27 0 .54-.1.74-.31a8.34 8.34 0 0 1 11.74 0 1.04 1.04 0 0 0 1.47-1.46 10.43 10.43 0 0 0-14.69.01 1.04 1.04 0 0 0 .74 1.76Z"/>
    </g>
    <g transform="translate(200 175) scale(1.4)">
      <path d="M2.07 12.45c0-1.15.93-2.08 2.07-2.08h6.23c1.14 0 2.07.93 2.07 2.08v8.3h2.07v-8.3a4.15 4.15 0 0 0-4.14-4.15H4.14A4.15 4.15 0 0 0 0 12.45v8.3h2.07v-8.3Z"/>
      <path d="M2.86 4.95a1.04 1.04 0 0 1 1.48 1.45 4.34 4.34 0 0 1 6.84.05 1.04 1.04 0 1 0 1.48-1.47 6.42 6.42 0 0 0-9.8-.03Z"/>
      <path d="M1.4 4.51c.27 0 .54-.1.74-.31a8.34 8.34 0 0 1 11.74 0 1.04 1.04 0 0 0 1.47-1.46 10.43 10.43 0 0 0-14.69.01 1.04 1.04 0 0 0 .74 1.76Z"/>
    </g>
    <g transform="translate(140 250) scale(1.1)">
      <path d="M2.07 12.45c0-1.15.93-2.08 2.07-2.08h6.23c1.14 0 2.07.93 2.07 2.08v8.3h2.07v-8.3a4.15 4.15 0 0 0-4.14-4.15H4.14A4.15 4.15 0 0 0 0 12.45v8.3h2.07v-8.3Z"/>
      <path d="M2.86 4.95a1.04 1.04 0 0 1 1.48 1.45 4.34 4.34 0 0 1 6.84.05 1.04 1.04 0 1 0 1.48-1.47 6.42 6.42 0 0 0-9.8-.03Z"/>
    </g>
  </g>
</svg>
