<svg clip-rule="evenodd" fill-rule="evenodd" stroke-linejoin="round" stroke-miterlimit="2" viewBox="0 0 560 400" xmlns="http://www.w3.org/2000/svg"><path d="m0 0v35.164h14.935c3.671 0 6.572-.939 8.713-2.837 2.142-1.899 3.207-4.454 3.207-7.664 0-2.283-.589-4.159-1.767-5.651-1.179-1.481-2.833-2.431-4.952-2.826 1.677-.69 2.935-1.673 3.785-2.95.849-1.277 1.269-2.837 1.269-4.668 0-2.849-.918-4.985-2.743-6.42-1.835-1.436-4.577-2.148-8.226-2.148zm13.178 14.784h-8.396v-10.771h8.793c2.312 0 4.023.429 5.144 1.288 1.122.859 1.677 2.182 1.677 3.967 0 1.888-.589 3.278-1.756 4.183-1.167.893-2.991 1.333-5.462 1.333zm1.326 16.141h-9.722v-12.23h9.178c2.754 0 4.782.475 6.063 1.436 1.28.949 1.926 2.452 1.926 4.487 0 2.057-.635 3.617-1.892 4.691-1.258 1.073-3.117 1.616-5.553 1.616zm31.819.053c.028-.034.06-.073.113-.064l.011-.023c.08.023.091.102.091.158.045.554.125 3.041.125 3.967l5.088.023c-.227-1.164-.454-2.43-.533-3.628-.007-.877-.012-2.063-.017-3.395-.019-4.797-.046-11.488-.232-12.452-.658-3.346-2.935-5.369-6.097-6.33-2.005-.61-4.079-.644-6.153-.463-4.215.362-7.501 3.334-8.351 7.381-.022.079 4.68.147 4.68.147.397-1.583 1.156-2.6 2.708-3.222 2.289-.927 4.272-.791 6.505.193 1.178.52 1.903 1.299 2.051 2.611.203 1.74-.488 3.119-2.357 3.605-1.629.426-3.313.674-4.987.921l-.045.006c-2.028.305-4.045.644-5.948 1.436-3.706 1.548-5.1 4.555-4.114 8.398.691 2.69 2.618 4.227 5.167 5.097 1.847.622 3.774.701 5.643.351 3.379-.556 6.008-3.901 6.575-4.623l.054-.068c.008-.007.015-.017.023-.026zm-.096-10.533c.026-.035.05-.069.073-.1.091-.136.204-.068.238.012.079.169.057 3.741-.362 5.549-.714 3.063-2.607 5.098-5.258 5.968-2.063.678-4.023.475-5.96-.621-2.017-1.142-2.788-3.482-1.474-5.234.51-.678 1.179-1.175 1.972-1.401 1.269-.362 2.55-.656 3.841-.938.162-.036.323-.07.485-.105 1.599-.345 3.208-.692 4.649-1.523 1.01-.52 1.503-1.202 1.796-1.607zm7.042 6.411h4.136c.158 1.741.782 3.052 1.881 3.945 1.088.893 2.64 1.334 4.657 1.334 1.847 0 3.309-.362 4.385-1.086 1.065-.723 1.609-1.718 1.609-2.972 0-.938-.272-1.662-.804-2.159-.533-.497-1.575-.938-3.128-1.3l-4.815-1.243c-2.709-.656-4.601-1.515-5.666-2.589-1.065-1.073-1.587-2.611-1.587-4.6 0-2.26.862-4.058 2.573-5.38 1.711-1.334 4.068-1.989 7.048-1.989 3.048 0 5.473.712 7.275 2.125 1.801 1.412 2.708 3.323 2.708 5.708v.09h-4.193c-.091-1.356-.646-2.396-1.666-3.142-1.008-.735-2.391-1.108-4.124-1.108-1.745 0-3.06.305-3.966.904-.907.611-1.349 1.492-1.349 2.645 0 .825.284 1.481.85 1.944.567.475 1.621.882 3.173 1.232l4.17.984c2.969.7 5.008 1.593 6.13 2.69 1.122 1.085 1.677 2.645 1.677 4.668 0 2.656-.94 4.725-2.81 6.194s-4.498 2.204-7.864 2.204c-3.286 0-5.813-.78-7.581-2.34-1.767-1.559-2.674-3.809-2.719-6.759zm45.551.057h-4.26c-.329 1.65-1.065 2.927-2.221 3.82-1.133.893-2.584 1.345-4.34 1.345-2.3 0-4.091-.735-5.382-2.204-1.292-1.469-1.961-3.549-2.006-6.239h18.504c.034-.237.045-.475.057-.735.011-.26.011-.655.011-1.175 0-4.126-1.009-7.313-3.025-9.574-2.017-2.261-4.873-3.391-8.556-3.391-3.592 0-6.413 1.221-8.453 3.674-2.039 2.452-3.059 5.855-3.059 10.217 0 4.126 1.02 7.381 3.082 9.766s4.872 3.583 8.43 3.583c3.026 0 5.541-.802 7.536-2.43 1.994-1.616 3.218-3.843 3.682-6.657zm-4.158-6.861h-14.074c.204-2.43.918-4.284 2.131-5.561 1.223-1.277 2.9-1.91 5.019-1.91 2.199 0 3.898.644 5.099 1.944 1.202 1.3 1.813 3.142 1.825 5.527z" transform="matrix(3.62966 0 0 3.62966 100 134.666)"/></svg>