<?xml version="1.0" encoding="utf-8"?>
<!-- Generator: Adobe Illustrator 24.0.0, SVG Export Plug-In . SVG Version: 6.00 Build 0)  -->
<svg version="1.1" id="Layer_1" xmlns="http://www.w3.org/2000/svg" xmlns:xlink="http://www.w3.org/1999/xlink" x="0px" y="0px"
	 viewBox="0 0 158 158" style="enable-background:new 0 0 158 158;" xml:space="preserve">
<style type="text/css">
	.st0{fill-rule:evenodd;clip-rule:evenodd;fill:#0C0C4F;}
	.st1{fill-rule:evenodd;clip-rule:evenodd;fill:#FAFAFA;}
	.st2{fill-rule:evenodd;clip-rule:evenodd;fill:#EC796B;}
</style>
<path class="st0" d="M0,79c0,43.6,35.4,79,79,79c43.6,0,79-35.4,79-79c0-43.6-35.4-79-79-79C35.4,0,0,35.4,0,79z"/>
<path class="st1" d="M44.2,60.4l2-6c0.4-1.2,1.4-2.2,2.6-2.6l6.1-1.9c0.8-0.3,0.8-1.4,0-1.7l-6-2c-1.2-0.4-2.2-1.4-2.6-2.6l-1.9-6.1
	c-0.3-0.8-1.4-0.8-1.7,0l-2,6c-0.4,1.2-1.4,2.2-2.6,2.6L32,48.1c-0.8,0.3-0.8,1.4,0,1.7l6,2c1.2,0.4,2.2,1.4,2.6,2.6l1.9,6.1
	C42.7,61.2,43.9,61.2,44.2,60.4z"/>
<path class="st2" d="M139.8,56.9c-2.5-2.8-6.4-4.4-10.2-5c-3.8-0.6-7.8-0.6-11.6,0.1c-7.6,1.3-14.6,4.4-20.6,8.3
	c-3.1,1.9-5.8,4.1-8.6,6.4c-1.3,1.1-2.6,2.4-3.8,3.5l-3.5,3.4c-3.8,3.9-7.5,7.5-11.1,10.5c-3.6,3-7,5.2-10.3,6.8
	c-3.3,1.6-6.9,2.5-11.5,2.7c-4.6,0.2-10-0.7-15.8-2c-5.8-1.4-12-3.3-18.8-5c2.4,6.6,6,12.5,10.6,17.9c4.7,5.3,10.5,10.1,18,13.2
	c7.4,3.2,16.7,4.4,25.4,2.6c8.7-1.7,16.4-5.7,22.5-10.4c6.2-4.7,11.2-10.1,15.4-15.7c1.2-1.5,1.8-2.4,2.6-3.6l2.3-3.5
	c1.6-2.1,3.1-4.6,4.7-6.7c3.1-4.4,6.2-8.9,9.9-12.9c1.8-2.1,3.7-4.1,6-6c1.1-0.9,2.3-1.8,3.7-2.7C136.6,58.1,138.1,57.4,139.8,56.9z
	"/>
<path class="st1" d="M139.8,56.9c-2.7-6.8-7.7-12.5-14.4-16.7c-6.6-4.2-15.9-6.3-25-4.5c-4.5,0.9-8.9,2.6-12.7,4.8
	c-3.8,2.2-7.3,4.9-10.2,7.8c-1.5,1.4-2.8,3-4.2,4.5l-3.5,4.4l-5.3,7.1c-6.8,9.1-14.2,19.9-26.2,23c-11.8,3.1-17,0.4-24.2-0.8
	c1.3,3.4,3,6.7,5.2,9.6c2.2,3,4.7,5.8,7.9,8.2c1.6,1.1,3.3,2.3,5.2,3.2c1.9,0.9,3.9,1.7,6.1,2.4c4.3,1.2,9.2,1.6,13.9,1
	c4.7-0.6,9.2-2.1,13.1-4.1c4-2,7.4-4.4,10.5-6.9c6.1-5.1,10.9-10.7,14.9-16.4c2-2.8,3.9-5.7,5.6-8.6l2-3.4c0.6-1,1.2-2,1.9-3
	c2.5-3.8,5-6.8,8-9.1c3-2.3,7.1-4.1,12.6-4.5C126.5,54.6,132.9,55.3,139.8,56.9z"/>
<path class="st2" d="M110.1,113.1c0,5,4,9,9,9c5,0,9-4,9-9c0-5-4-9-9-9C114.1,104.1,110.1,108.1,110.1,113.1z"/>
</svg>
